<svg width="30" height="20" viewBox="0 0 30 20" fill="none" xmlns="http://www.w3.org/2000/svg">
<path d="M7.21442 19.9689C5.47027 20.1246 3.96396 19.6964 2.6955 18.6843C1.50631 17.5944 0.713514 16.1931 0.317117 14.4803C0 13.0012 -0.0792793 11.4831 0.0792793 9.92604C0.317117 8.29116 0.832432 6.81199 1.62523 5.48852C2.4973 4.08719 3.68649 2.8805 5.19279 1.86843C6.6991 0.856364 8.6018 0.233554 10.9009 0L11.7333 2.91942C10.5441 3.23083 9.27568 3.77579 7.92793 4.5543C6.58018 5.33281 5.70811 6.65629 5.31171 8.52472L7.0955 8.17439C8.91892 8.09654 10.4649 8.60257 11.7333 9.69249C13.0811 10.7824 13.755 12.1448 13.755 13.7797C13.755 15.4146 13.1207 16.8548 11.8523 18.1004C10.5838 19.2682 9.03784 19.891 7.21442 19.9689ZM22.9117 19.9689C21.0883 20.1246 19.582 19.6964 18.3928 18.6843C17.2036 17.5944 16.4108 16.1931 16.0144 14.4803C15.618 13.0012 15.5387 11.4831 15.7766 9.92604C16.0144 8.29116 16.5297 6.81199 17.3225 5.48852C18.1946 4.08719 19.3838 2.8805 20.8901 1.86843C22.3964 0.856364 24.2595 0.233554 26.4793 0L27.4306 2.91942C26.2414 3.23083 24.9333 3.77579 23.5063 4.5543C22.1586 5.33281 21.2865 6.65629 20.8901 8.52472C21.2072 8.44687 21.4847 8.40794 21.7225 8.40794C22.0396 8.33009 22.3964 8.25224 22.7928 8.17439C24.6162 8.09654 26.1622 8.60257 27.4306 9.69249C28.6991 10.7824 29.3333 12.1448 29.3333 13.7797C29.3333 15.4146 28.6991 16.8548 27.4306 18.1004C26.2414 19.2682 24.7351 19.891 22.9117 19.9689Z" fill="#3D8AFF"/>
</svg>
