<svg width="30" height="20" viewBox="0 0 30 20" fill="none" xmlns="http://www.w3.org/2000/svg">
<path d="M22.7856 19.9689C24.5297 20.1246 26.036 19.6964 27.3045 18.6843C28.4937 17.5944 29.2865 16.1931 29.6829 14.4803C30 13.0012 30.0793 11.4831 29.9207 9.92604C29.6829 8.29116 29.1676 6.81199 28.3748 5.48852C27.5027 4.08719 26.3135 2.8805 24.8072 1.86843C23.3009 0.856364 21.3982 0.233554 19.0991 0L18.2667 2.91942C19.4559 3.23083 20.7243 3.77579 22.0721 4.5543C23.4198 5.33281 24.2919 6.65629 24.6883 8.52472L22.9045 8.17439C21.0811 8.09654 19.5351 8.60257 18.2667 9.69249C16.9189 10.7824 16.245 12.1448 16.245 13.7797C16.245 15.4146 16.8793 16.8548 18.1477 18.1004C19.4162 19.2682 20.9622 19.891 22.7856 19.9689ZM7.08829 19.9689C8.91171 20.1246 10.418 19.6964 11.6072 18.6843C12.7964 17.5944 13.5892 16.1931 13.9856 14.4803C14.382 13.0012 14.4613 11.4831 14.2234 9.92604C13.9856 8.29116 13.4703 6.81199 12.6775 5.48852C11.8054 4.08719 10.6162 2.8805 9.10991 1.86843C7.6036 0.856364 5.74054 0.233554 3.52072 0L2.56937 2.91942C3.75856 3.23083 5.06667 3.77579 6.49369 4.5543C7.84144 5.33281 8.71351 6.65629 9.10991 8.52472C8.79279 8.44687 8.51531 8.40794 8.27748 8.40794C7.96036 8.33009 7.6036 8.25224 7.20721 8.17439C5.38378 8.09654 3.83784 8.60257 2.56937 9.69249C1.3009 10.7824 0.666668 12.1448 0.666668 13.7797C0.666668 15.4146 1.3009 16.8548 2.56937 18.1004C3.75856 19.2682 5.26486 19.891 7.08829 19.9689Z" fill="#3D8AFF"/>
</svg>
