<?xml version="1.0" standalone="no"?>
<!DOCTYPE svg PUBLIC "-//W3C//DTD SVG 20010904//EN"
 "http://www.w3.org/TR/2001/REC-SVG-20010904/DTD/svg10.dtd">
<svg version="1.0" xmlns="http://www.w3.org/2000/svg"
 width="992.000000pt" height="992.000000pt" viewBox="0 0 992.000000 992.000000"
 preserveAspectRatio="xMidYMid meet">
<metadata>
Created by potrace 1.14, written by Peter Selinger 2001-2017
</metadata>
<g transform="translate(0.000000,992.000000) scale(0.100000,-0.100000)"
fill="#000000" stroke="none">
<path d="M3829 9725 c-3 -2 -39 -7 -81 -9 -143 -9 -289 -78 -388 -183 -52 -56
-119 -156 -124 -185 -1 -7 -5 -19 -9 -25 -8 -13 -10 -19 -27 -103 -5 -26 -9
-645 -10 -1469 0 -784 -2 -1427 -5 -1429 -3 -3 -17 9 -32 25 -66 72 -121 97
-210 96 -45 -1 -119 -33 -152 -67 -12 -11 -57 -57 -101 -101 -44 -44 -80 -85
-80 -92 0 -7 -7 -16 -16 -21 -9 -5 -16 -13 -15 -18 0 -5 -3 -27 -6 -49 -4 -22
-7 -52 -6 -66 2 -33 42 -129 54 -129 5 0 9 -7 9 -15 0 -8 4 -15 8 -15 5 0 101
-91 214 -203 l206 -202 -156 2 c-87 1 -182 -3 -212 -7 -30 -5 -73 -11 -95 -14
-22 -3 -51 -8 -65 -11 -14 -3 -47 -10 -73 -15 -27 -5 -52 -12 -56 -14 -4 -3
-23 -8 -41 -11 -19 -3 -40 -11 -47 -17 -7 -6 -13 -8 -13 -4 0 8 -124 -37 -240
-87 -131 -56 -278 -133 -342 -179 -16 -11 -28 -17 -28 -13 0 3 -10 -3 -22 -15
-12 -11 -26 -20 -30 -20 -9 0 -24 -11 -59 -43 -10 -9 -23 -17 -28 -17 -5 0
-27 -15 -49 -32 -22 -18 -52 -42 -67 -53 -16 -11 -33 -25 -39 -30 -6 -6 -33
-28 -60 -50 -28 -22 -79 -68 -115 -102 -37 -35 -69 -63 -73 -63 -5 0 -8 -4 -8
-8 0 -4 -33 -42 -72 -83 -83 -86 -140 -152 -213 -248 -77 -100 -165 -229 -165
-240 0 -6 -4 -11 -10 -11 -5 0 -10 -4 -10 -9 0 -5 -17 -38 -38 -72 -21 -35
-50 -86 -63 -114 -13 -27 -27 -51 -31 -53 -5 -2 -8 -10 -8 -17 0 -7 -13 -39
-29 -71 -16 -33 -32 -70 -36 -84 -4 -14 -11 -29 -15 -35 -12 -17 -80 -233 -80
-255 0 -11 -4 -20 -8 -20 -5 0 -9 -6 -9 -12 0 -7 -5 -38 -11 -68 -7 -30 -14
-68 -17 -85 -3 -16 -7 -41 -10 -55 -26 -131 -22 -473 6 -548 6 -15 10 -28 9
-30 -4 -7 24 -119 32 -129 6 -7 8 -13 5 -13 -14 0 99 -241 116 -248 4 -2 7
-10 7 -18 0 -8 4 -14 8 -14 4 0 15 -12 24 -27 9 -16 34 -47 55 -70 21 -23 45
-50 53 -60 9 -10 33 -31 54 -48 21 -16 45 -36 52 -42 7 -7 17 -13 22 -13 6 0
12 -3 14 -7 12 -28 197 -121 303 -152 104 -31 186 -48 223 -47 17 1 32 -2 32
-6 0 -9 335 -2 400 7 25 4 51 7 58 8 6 0 12 3 12 6 0 3 15 7 33 7 45 3 188 38
247 61 8 3 21 8 28 10 6 1 18 5 25 6 6 2 25 9 40 15 16 7 30 12 31 12 2 0 21
8 42 17 22 9 42 17 46 17 3 1 10 4 14 8 4 5 16 8 26 8 10 0 18 5 18 10 0 6 9
10 20 10 11 0 20 5 20 10 0 6 8 10 19 10 10 0 24 7 31 15 6 8 15 14 18 13 11
-3 255 134 272 152 13 14 70 50 79 50 5 0 11 4 13 8 2 4 39 35 83 67 44 33 87
67 96 75 8 8 29 26 45 39 68 56 102 90 96 95 -3 3 1 6 8 6 7 0 19 8 26 18 11
14 13 -125 14 -838 0 -470 3 -873 6 -895 21 -166 123 -329 263 -422 76 -50
189 -93 260 -97 32 -2 64 -6 69 -10 6 -3 13 -2 17 4 4 6 12 7 24 1 10 -6 23
-6 31 -1 9 5 19 5 26 -1 8 -7 14 -7 18 0 4 7 15 7 30 1 13 -5 26 -6 29 -4 9 9
71 10 90 2 10 -5 17 -5 17 1 0 7 9 7 25 1 14 -5 25 -6 25 -2 0 4 18 7 40 7 22
0 40 -3 40 -7 0 -4 11 -3 25 2 16 6 25 6 25 0 0 -6 9 -6 24 0 16 6 27 5 35 -3
9 -9 14 -9 19 -1 4 7 16 8 27 4 11 -4 32 -4 48 1 16 4 27 4 27 -2 0 -6 7 -6
19 1 13 7 22 7 26 0 4 -7 13 -7 24 0 12 6 22 5 28 -1 8 -8 13 -8 17 0 4 7 15
7 30 1 13 -5 26 -6 29 -4 9 9 71 10 90 2 10 -5 17 -5 17 1 0 7 9 7 25 1 14 -5
25 -6 25 -2 0 4 18 7 40 7 22 0 40 -3 40 -7 0 -4 11 -3 25 2 16 6 25 6 25 0 0
-6 9 -6 24 0 16 6 27 5 35 -3 9 -9 14 -9 19 -1 4 7 16 8 27 4 11 -4 32 -4 48
1 16 4 27 4 27 -2 0 -6 7 -6 19 1 13 7 22 7 26 0 4 -7 13 -7 24 0 12 6 22 5
28 -1 8 -8 13 -8 17 0 4 7 15 7 30 1 13 -5 26 -6 29 -4 9 9 71 10 90 2 10 -5
17 -5 17 1 0 7 9 7 25 1 14 -5 25 -6 25 -2 0 4 18 7 40 7 22 0 40 -3 40 -7 0
-4 11 -3 25 2 16 6 25 6 25 0 0 -6 9 -6 24 0 16 6 27 5 35 -3 9 -9 14 -9 19
-1 4 7 16 8 27 4 11 -4 32 -4 48 1 16 4 27 4 27 -2 0 -6 7 -6 19 1 13 7 22 7
26 0 4 -7 13 -7 24 0 12 6 22 5 28 -1 8 -8 13 -8 17 0 4 7 15 7 30 1 13 -5 26
-6 29 -4 9 9 71 10 90 2 10 -5 17 -5 17 1 0 7 9 7 25 1 14 -5 25 -6 25 -2 0 4
18 7 40 7 22 0 40 -3 40 -7 0 -4 11 -3 25 2 16 6 25 6 25 0 0 -6 9 -6 24 0 16
6 27 5 35 -3 9 -9 14 -9 19 -1 4 7 16 8 27 4 11 -4 32 -4 48 1 16 4 27 4 27
-2 0 -6 7 -6 19 1 13 7 22 7 26 0 4 -7 13 -7 24 0 12 6 22 5 28 -1 8 -8 13 -8
17 0 4 7 15 7 30 1 13 -5 26 -6 29 -4 9 9 71 10 90 2 10 -5 17 -5 17 1 0 7 9
7 25 1 14 -5 25 -6 25 -2 0 4 18 7 40 7 22 0 40 -3 40 -7 0 -4 11 -3 25 2 16
6 25 6 25 0 0 -6 9 -6 24 0 16 6 27 5 35 -3 9 -9 14 -9 19 -1 4 7 16 8 27 4
11 -4 32 -4 48 1 16 4 27 4 27 -2 0 -6 7 -6 19 1 13 7 22 7 26 0 4 -7 13 -7
24 0 12 6 22 5 28 -1 8 -8 13 -8 17 0 4 7 15 7 30 1 13 -5 26 -6 29 -4 9 9 71
10 90 2 10 -5 17 -5 17 1 0 7 9 7 25 1 14 -5 25 -6 25 -2 0 4 18 7 40 7 22 0
40 -3 40 -7 0 -4 11 -3 25 2 16 6 25 6 25 0 0 -6 9 -6 24 0 16 6 27 5 35 -3 9
-9 14 -9 19 -1 4 7 16 8 27 4 11 -4 32 -4 48 1 16 4 27 4 27 -2 0 -6 7 -6 19
1 13 7 22 7 26 0 4 -7 13 -7 24 0 12 6 22 5 28 -1 8 -8 13 -8 17 0 4 7 15 7
30 1 13 -5 26 -6 29 -4 9 9 71 10 90 2 10 -5 17 -5 17 1 0 7 9 7 25 1 14 -5
25 -6 25 -2 0 4 18 7 40 7 22 0 40 -3 40 -7 0 -4 11 -3 25 2 16 6 25 6 25 0 0
-6 9 -6 24 0 16 6 27 5 35 -3 9 -9 14 -9 19 -1 4 7 16 8 27 4 11 -4 32 -4 48
1 16 4 27 4 27 -2 0 -6 7 -6 19 1 13 7 22 7 26 0 4 -7 13 -7 24 0 12 6 22 5
28 -1 8 -8 13 -8 17 0 4 7 15 7 30 1 13 -5 26 -6 29 -4 9 9 71 10 90 2 10 -5
17 -5 17 1 0 7 9 7 25 1 14 -5 25 -6 25 -1 0 5 17 5 38 1 20 -3 49 -3 65 1 15
4 27 3 27 -2 0 -5 10 -5 24 1 15 5 27 5 34 -2 6 -6 12 -6 16 1 5 8 13 8 27 1
10 -6 19 -7 19 -3 0 4 21 9 48 9 67 2 102 7 102 16 0 4 9 5 20 3 11 -2 22 0
25 5 3 4 17 11 32 15 50 12 145 77 209 143 68 69 143 202 147 260 1 18 4 32 8
32 3 0 7 19 8 42 7 81 5 8483 -2 8528 -26 188 -160 367 -337 452 -95 45 -159
56 -335 57 -44 0 -87 0 -95 1 -8 0 -24 1 -35 3 -11 2 -32 1 -46 -3 -15 -4 -32
-4 -39 0 -7 4 -25 4 -40 0 -15 -4 -33 -4 -40 0 -7 4 -25 4 -40 0 -15 -4 -33
-4 -40 0 -7 4 -24 5 -38 1 -14 -4 -47 -4 -72 -1 -26 3 -56 3 -66 -1 -11 -3
-28 -3 -39 1 -11 4 -29 4 -40 0 -11 -4 -30 -4 -42 1 -13 5 -25 4 -29 -2 -4 -6
-11 -6 -20 2 -8 6 -14 7 -14 2 0 -7 -15 -8 -40 -3 -25 5 -40 4 -40 -3 0 -5 -6
-4 -14 2 -10 8 -16 9 -21 1 -3 -6 -10 -8 -14 -6 -4 3 -46 5 -92 5 -46 0 -91 0
-99 1 -8 0 -24 1 -35 3 -11 2 -32 1 -46 -3 -15 -4 -32 -4 -39 0 -7 4 -25 4
-40 0 -15 -4 -33 -4 -40 0 -7 4 -25 4 -40 0 -15 -4 -33 -4 -40 0 -7 4 -24 5
-38 1 -14 -4 -47 -4 -72 -1 -26 3 -56 3 -66 -1 -11 -3 -28 -3 -39 1 -11 4 -29
4 -40 0 -11 -4 -30 -4 -42 1 -13 5 -25 4 -29 -2 -4 -6 -11 -6 -20 2 -8 6 -14
7 -14 2 0 -7 -15 -8 -40 -3 -25 5 -40 4 -40 -3 0 -5 -6 -4 -14 2 -10 8 -16 9
-21 1 -3 -6 -10 -8 -14 -6 -4 3 -46 5 -92 5 -46 0 -91 0 -99 1 -8 0 -24 1 -35
3 -11 2 -32 1 -46 -3 -15 -4 -32 -4 -39 0 -7 4 -25 4 -40 0 -15 -4 -33 -4 -40
0 -7 4 -25 4 -40 0 -15 -4 -33 -4 -40 0 -7 4 -24 5 -38 1 -14 -4 -47 -4 -72
-1 -26 3 -56 3 -66 -1 -11 -3 -28 -3 -39 1 -11 4 -29 4 -40 0 -11 -4 -30 -4
-42 1 -13 5 -25 4 -29 -2 -4 -6 -11 -6 -20 2 -8 6 -14 7 -14 2 0 -7 -15 -8
-40 -3 -25 5 -40 4 -40 -3 0 -5 -6 -4 -14 2 -10 8 -16 9 -21 1 -3 -6 -10 -8
-14 -6 -4 3 -46 5 -92 5 -46 0 -91 0 -99 1 -8 0 -24 1 -35 3 -11 2 -32 1 -46
-3 -15 -4 -32 -4 -39 0 -7 4 -25 4 -40 0 -15 -4 -33 -4 -40 0 -7 4 -25 4 -40
0 -15 -4 -33 -4 -40 0 -7 4 -24 5 -38 1 -14 -4 -47 -4 -72 -1 -26 3 -56 3 -66
-1 -11 -3 -28 -3 -39 1 -11 4 -29 4 -40 0 -11 -4 -30 -4 -42 1 -13 5 -25 4
-29 -2 -4 -6 -11 -6 -20 2 -8 6 -14 7 -14 2 0 -7 -15 -8 -40 -3 -25 5 -40 4
-40 -3 0 -5 -6 -4 -14 2 -10 8 -16 9 -21 1 -3 -6 -10 -8 -14 -6 -4 3 -46 5
-92 5 -46 0 -91 0 -99 1 -8 0 -24 1 -35 3 -11 2 -32 1 -46 -3 -15 -4 -32 -4
-39 0 -7 4 -25 4 -40 0 -15 -4 -33 -4 -40 0 -7 4 -25 4 -40 0 -15 -4 -33 -4
-40 0 -7 4 -24 5 -38 1 -14 -4 -47 -4 -72 -1 -26 3 -56 3 -66 -1 -11 -3 -28
-3 -39 1 -11 4 -29 4 -40 0 -11 -4 -30 -4 -42 1 -13 5 -25 4 -29 -2 -4 -6 -11
-6 -20 2 -8 6 -14 7 -14 2 0 -7 -15 -8 -40 -3 -25 5 -40 4 -40 -3 0 -5 -6 -4
-14 2 -10 8 -16 9 -21 1 -3 -6 -10 -8 -14 -6 -7 5 -144 8 -181 4 -8 -1 -24 2
-36 6 -11 3 -23 4 -25 1z"/>
</g>
</svg>
