<svg xmlns="http://www.w3.org/2000/svg" width="1120" height="248" viewBox="0 0 1120 248">
  <defs>
    <style>
      .cls-1 {
        fill: #1a4872;
      }

      .cls-2 {
        fill: #fff;
      }

      .cls-2, .cls-3, .cls-4, .cls-5, .cls-6, .cls-7, .cls-8, .cls-9 {
        fill-rule: evenodd;
      }

      .cls-3 {
        fill: red;
      }

      .cls-4 {
        fill: #42444c;
      }

      .cls-5 {
        fill: #b1dae5;
      }

      .cls-6 {
        fill: #cee8ef;
      }

      .cls-7 {
        fill: #2c2e35;
      }

      .cls-8 {
        fill: #f2f2f2;
      }

      .cls-9 {
        fill: #e53333;
      }
    </style>
  </defs>
  <rect id="Прямоугольник_скругл._углы_4" data-name="Прямоугольник, скругл. углы 4" class="cls-1" x="258" y="163" width="836" height="81" rx="28" ry="28"/>
  <path id="Фигура_4" data-name="Фигура 4" class="cls-2" d="M329.822,197.982c-3.639-12.091-14.251-18.686-26.266-18.686-15.692,0-27.707,11.977-27.707,27.214,0,15.539,12.584,27.175,27.707,27.175,12.432,0,23.12-7.656,26.379-19.064l-10.8-3.336c-2.35,7.656-7.959,12.015-15.577,12.015-9.665,0-16.033-7.732-16.033-16.79,0-9.514,6.519-16.867,16.033-16.867,7.656,0,13.265,4.435,15.539,11.826Zm7.017-18.648v54.351h38.243V223.224H348.209V209.087h20.5V198.74h-20.5V189.8h26.873V179.334H336.839Zm58.077,22.059v-11.56h13.758a10.22,10.22,0,0,1,4.17.568,5.487,5.487,0,0,1,0,10.461,10.542,10.542,0,0,1-4.132.531h-13.8Zm0,32.292V211.816H410.19c4.625,0,7.77-.91,10.348-2.54a15.723,15.723,0,0,0,7.315-13.644c0-6.178-2.843-10.992-7.239-13.721-2.616-1.668-5.8-2.539-10.424-2.539H383.583v54.313h11.333Zm51.063-32.595V189.454h9.589a9.474,9.474,0,0,1,4.169.568c2.2,0.948,3.9,2.691,3.9,5.269,0,2.653-1.705,4.358-3.9,5.268a10.658,10.658,0,0,1-4.131.531h-9.627Zm0,22.286V210.641h13.076a11.6,11.6,0,0,1,4.624.606,6.048,6.048,0,0,1,0,11.522,11.658,11.658,0,0,1-4.548.607H445.979Zm-11.333,10.309h26.721c4.473,0,7.429-.834,9.931-2.274a15.766,15.766,0,0,0,7.77-13.986c0-5.912-3.45-10.461-8.149-13.076a13.359,13.359,0,0,0,3.525-8.945,15.423,15.423,0,0,0-8.036-13.986c-2.425-1.326-5.306-2.046-9.627-2.046H434.646v54.313Zm101.018,0V179.334h-6.216l-31.572,34.377V179.334H486.543v54.351H492.8l31.534-34.415v34.415h11.333Zm61.519-35.7c-3.638-12.091-14.251-18.686-26.266-18.686-15.691,0-27.706,11.977-27.706,27.214,0,15.539,12.583,27.175,27.706,27.175,12.432,0,23.12-7.656,26.38-19.064l-10.8-3.336c-2.35,7.656-7.96,12.015-15.578,12.015-9.665,0-16.032-7.732-16.032-16.79,0-9.514,6.519-16.867,16.032-16.867,7.656,0,13.266,4.435,15.54,11.826ZM639.9,179.334v19.33H615.533v-19.33H604.2v54.351h11.333V209.163H639.9v24.522h11.37V179.334H639.9Zm83.466,0.038H712.037v54.313H723.37V179.372Zm-28.958,37.636a6.021,6.021,0,0,1-3.941,5.648,9.587,9.587,0,0,1-4.245.644H672.808V210.792h13.456a10.011,10.011,0,0,1,4.207.569A6.051,6.051,0,0,1,694.412,217.008Zm11.182,0a16.15,16.15,0,0,0-7.391-13.985c-2.616-1.706-5.837-2.616-10.5-2.616h-14.9V179.372H661.476v54.313H687.7c4.662,0,7.921-.909,10.574-2.577C702.713,228.265,705.594,223.338,705.594,217.008Zm53.742-34.074,12.128-12.886-7.542-7.088-12.091,12.887Zm23.347,50.751V179.334h-6.215L744.9,213.711V179.334H733.562v54.351h6.254l31.535-34.415v34.415h11.332Zm65.867-54.351v43.814H824.331V179.334H812.96v54.351h43.588v11.181H867.88V223.148h-7.959V179.334H848.55Zm26.5,0v54.351H913.29V223.224H886.417V209.087h20.5V198.74h-20.5V189.8H913.29V179.334H875.047Zm82.448,0v19.33H933.124v-19.33H921.791v54.351h11.333V209.163H957.5v24.522h11.371V179.334H957.5Zm18.767,0v10.5h17.852v43.852h11.366V189.833h17.89v-10.5H976.262Zm65.848,22.059v-11.56h13.75a10.21,10.21,0,0,1,4.17.568,5.487,5.487,0,0,1,0,10.461,10.507,10.507,0,0,1-4.13.531h-13.79Zm0,32.292V211.816h15.27c4.63,0,7.77-.91,10.35-2.54a15.723,15.723,0,0,0,7.31-13.644c0-6.178-2.84-10.992-7.24-13.721-2.61-1.668-5.79-2.539-10.42-2.539h-26.61v54.313h11.34Z"/>
  <path id="Фигура_3" data-name="Фигура 3" class="cls-3" d="M383.559,158.331l-32.675-57.464q15.7-5.089,24.082-16.752A44.62,44.62,0,0,0,383.347,57.4a49.084,49.084,0,0,0-6.471-25.127q-6.475-11.132-19.415-17.6T326.271,8.2h-70.02V158.331h47.1V104.472h0.212l28.22,53.859h51.772Zm-80.2-110.687h18.672q6.575,0,10.079,3.393t3.5,9.33q0,6.575-3.4,9.648t-10.185,3.075H303.355V47.644Zm195.206-1.908V8.2H398.412V158.331H498.561V120.8H445.516v-21.2H492.2V64.183H445.516V45.735h53.045Zm118.4,35.624a32.725,32.725,0,0,0,18.354-11.981q6.892-9.01,6.9-22.159,0-19.084-13.156-29.05T592.981,8.2h-76.6V158.331H595.1q24.4,0,37.449-10.708T645.6,117.2a36.535,36.535,0,0,0-7.532-22.8q-7.534-9.86-21.112-13.041h0ZM563.488,45.523h18.247q6.366,0,9.442,2.651t3.077,8.164q0,5.3-3.077,7.846t-9.442,2.544H563.488v-21.2Zm21.43,75.064h-21.43v-21.2h21.43q12.518,0,12.519,10.814,0,5.517-3.077,7.952t-9.442,2.438h0Zm149.8,39.229a77.626,77.626,0,0,0,38.723-9.966,73.85,73.85,0,0,0,28.008-27.566q10.288-17.6,10.291-39.653T801.446,42.979a73.305,73.305,0,0,0-27.9-27.46,81.593,81.593,0,0,0-77.764,0,73.809,73.809,0,0,0-28.114,27.46q-10.4,17.6-10.4,39.653t10.4,39.653A74.568,74.568,0,0,0,695.78,149.85a78.026,78.026,0,0,0,38.935,9.966h0Zm0-43.894q-14.217,0-21.854-9.012t-7.639-24.279q0-15.476,7.639-24.491t21.854-9.012q14,0,21.642,9.012T764,82.631q0,15.267-7.639,24.279t-21.642,9.012h0Zm167.2,43.894a77.629,77.629,0,0,0,38.723-9.966,73.85,73.85,0,0,0,28.008-27.566q10.288-17.6,10.29-39.653t-10.29-39.653a73.305,73.305,0,0,0-27.9-27.46,81.593,81.593,0,0,0-77.764,0,73.809,73.809,0,0,0-28.114,27.46q-10.4,17.6-10.4,39.653t10.4,39.653a74.568,74.568,0,0,0,28.114,27.566,78.026,78.026,0,0,0,38.935,9.966h0Zm0-43.894q-14.219,0-21.855-9.012t-7.638-24.279q0-15.476,7.638-24.491t21.855-9.012q14,0,21.642,9.012t7.639,24.491q0,15.267-7.639,24.279t-21.642,9.012h0ZM987.419,8.2v37.32h39.461V158.331h47.11V45.523h39.89V8.2H987.419Z"/>
  <path id="Прямоугольник_скругл._углы_2" data-name="Прямоугольник, скругл. углы 2" class="cls-4" d="M93.792,5H220.344a15,15,0,0,1,15,15V229a15,15,0,0,1-15,15H93.792a15,15,0,0,1-15-15V20A15,15,0,0,1,93.792,5Z"/>
  <path id="Прямоугольник_1" data-name="Прямоугольник 1" class="cls-5" d="M91.755,35H226.369V217H91.755V35Z"/>
  <path id="Фигура_2" data-name="Фигура 2" class="cls-6" d="M129.647,217L176.512,35h49.857V217H129.647Z"/>
  <path id="Прямоугольник_скругл._углы_3" data-name="Прямоугольник, скругл. углы 3" class="cls-7" d="M147.107,229h23.911a3.5,3.5,0,1,1,0,7H147.107A3.5,3.5,0,1,1,147.107,229Z"/>
  <path id="Фигура_1" data-name="Фигура 1" class="cls-8" d="M91.923,104.98l41.88-42,5.983-21,36.894-21,13.96,14-19.943,38-20.94,6-41.88,42Z"/>
  <path id="Эллипс_1" data-name="Эллипс 1" class="cls-9" d="M26.517,132.588c21.352-21.968,50.765-27.945,65.7-13.35s9.726,44.236-11.626,66.2-50.765,27.945-65.7,13.35S5.165,154.556,26.517,132.588Z"/>
  <path id="Прямоугольник_скругл._углы_1" data-name="Прямоугольник, скругл. углы 1" class="cls-9" d="M77.135,88.6L123.7,134.481a6.012,6.012,0,0,1,.075,8.485l-3.8,3.882a5.971,5.971,0,0,1-8.46.075L64.947,101.046a6.012,6.012,0,0,1-.075-8.485l3.8-3.881A5.971,5.971,0,0,1,77.135,88.6Z"/>
</svg>
