<svg xmlns="http://www.w3.org/2000/svg" width="1120" height="248"><defs><style>.cls-9{fill-rule:evenodd;fill:#e53333}</style></defs><rect id="Прямоугольник_скругл._углы_4" data-name="Прямоугольник, скругл. углы 4" x="258" y="163" width="836" height="81" rx="28" ry="28" fill="#1a4872"/><path id="Фигура_4" data-name="Фигура 4" d="M329.822 197.982c-3.639-12.091-14.251-18.686-26.266-18.686-15.692 0-27.707 11.977-27.707 27.214 0 15.539 12.584 27.175 27.707 27.175 12.432 0 23.12-7.656 26.379-19.064l-10.8-3.336c-2.35 7.656-7.959 12.015-15.577 12.015-9.665 0-16.033-7.732-16.033-16.79 0-9.514 6.519-16.867 16.033-16.867 7.656 0 13.265 4.435 15.539 11.826zm7.017-18.648v54.351h38.243v-10.461h-26.873v-14.137h20.5V198.74h-20.5v-8.94h26.873v-10.466h-38.243zm58.077 22.059v-11.56h13.758a10.22 10.22 0 014.17.568 5.487 5.487 0 010 10.461 10.542 10.542 0 01-4.132.531h-13.8zm0 32.292v-21.869h15.274c4.625 0 7.77-.91 10.348-2.54a15.723 15.723 0 007.315-13.644c0-6.178-2.843-10.992-7.239-13.721-2.616-1.668-5.8-2.539-10.424-2.539h-26.607v54.313h11.333zm51.063-32.595v-11.636h9.589a9.474 9.474 0 014.169.568c2.2.948 3.9 2.691 3.9 5.269 0 2.653-1.705 4.358-3.9 5.268a10.658 10.658 0 01-4.131.531h-9.627zm0 22.286v-12.735h13.076a11.6 11.6 0 014.624.606 6.048 6.048 0 010 11.522 11.658 11.658 0 01-4.548.607h-13.152zm-11.333 10.309h26.721c4.473 0 7.429-.834 9.931-2.274a15.766 15.766 0 007.77-13.986c0-5.912-3.45-10.461-8.149-13.076a13.359 13.359 0 003.525-8.945 15.423 15.423 0 00-8.036-13.986c-2.425-1.326-5.306-2.046-9.627-2.046h-22.135v54.313zm101.018 0v-54.351h-6.216l-31.572 34.377v-34.377h-11.333v54.351h6.257l31.534-34.415v34.415h11.333zm61.519-35.7c-3.638-12.091-14.251-18.686-26.266-18.686-15.691 0-27.706 11.977-27.706 27.214 0 15.539 12.583 27.175 27.706 27.175 12.432 0 23.12-7.656 26.38-19.064l-10.8-3.336c-2.35 7.656-7.96 12.015-15.578 12.015-9.665 0-16.032-7.732-16.032-16.79 0-9.514 6.519-16.867 16.032-16.867 7.656 0 13.266 4.435 15.54 11.826zm42.717-18.651v19.33h-24.367v-19.33H604.2v54.351h11.333v-24.522H639.9v24.522h11.37v-54.351H639.9zm83.466.038h-11.329v54.313h11.333v-54.313zm-28.958 37.636a6.021 6.021 0 01-3.941 5.648 9.587 9.587 0 01-4.245.644h-13.414v-12.508h13.456a10.011 10.011 0 014.207.569 6.051 6.051 0 013.941 5.647zm11.182 0a16.15 16.15 0 00-7.391-13.985c-2.616-1.706-5.837-2.616-10.5-2.616h-14.9v-21.035h-11.323v54.313H687.7c4.662 0 7.921-.909 10.574-2.577 4.439-2.843 7.32-7.77 7.32-14.1zm53.742-34.074l12.128-12.886-7.542-7.088-12.091 12.887zm23.347 50.751v-54.351h-6.215L744.9 213.711v-34.377h-11.338v54.351h6.254l31.535-34.415v34.415h11.332zm65.867-54.351v43.814h-24.215v-43.814H812.96v54.351h43.588v11.181h11.332v-21.718h-7.959v-43.814H848.55zm26.5 0v54.351h38.244v-10.461h-26.873v-14.137h20.5V198.74h-20.5v-8.94h26.873v-10.466h-38.243zm82.448 0v19.33h-24.37v-19.33h-11.333v54.351h11.333v-24.522H957.5v24.522h11.371v-54.351H957.5zm18.767 0v10.5h17.852v43.852h11.366v-43.853h17.89v-10.5h-47.107zm65.848 22.059v-11.56h13.75a10.21 10.21 0 014.17.568 5.487 5.487 0 010 10.461 10.507 10.507 0 01-4.13.531h-13.79zm0 32.292v-21.869h15.27c4.63 0 7.77-.91 10.35-2.54a15.723 15.723 0 007.31-13.644c0-6.178-2.84-10.992-7.24-13.721-2.61-1.668-5.79-2.539-10.42-2.539h-26.61v54.313h11.34z" fill-rule="evenodd" fill="#fff"/><path id="Фигура_3" data-name="Фигура 3" d="M383.559 158.331l-32.675-57.464q15.7-5.089 24.082-16.752a44.62 44.62 0 008.381-26.715 49.084 49.084 0 00-6.471-25.127q-6.475-11.132-19.415-17.6T326.271 8.2h-70.02v150.131h47.1v-53.859h.212l28.22 53.859h51.772zm-80.2-110.687h18.672q6.575 0 10.079 3.393t3.5 9.33q0 6.575-3.4 9.648t-10.185 3.075h-18.67V47.644zm195.206-1.908V8.2H398.412v150.131h100.149V120.8h-53.045V99.6H492.2V64.183h-46.684V45.735h53.045zm118.4 35.624a32.725 32.725 0 0018.354-11.981q6.892-9.01 6.9-22.159 0-19.084-13.156-29.05T592.981 8.2h-76.6v150.131H595.1q24.4 0 37.449-10.708T645.6 117.2a36.535 36.535 0 00-7.532-22.8q-7.534-9.86-21.112-13.041zm-53.477-35.837h18.247q6.366 0 9.442 2.651t3.077 8.164q0 5.3-3.077 7.846t-9.442 2.544h-18.247v-21.2zm21.43 75.064h-21.43v-21.2h21.43q12.518 0 12.519 10.814 0 5.517-3.077 7.952t-9.442 2.438zm149.8 39.229a77.626 77.626 0 0038.723-9.966 73.85 73.85 0 0028.008-27.566q10.288-17.6 10.291-39.653t-10.294-39.652a73.305 73.305 0 00-27.9-27.46 81.593 81.593 0 00-77.764 0 73.809 73.809 0 00-28.114 27.46q-10.4 17.6-10.4 39.653t10.4 39.653a74.568 74.568 0 0028.112 27.565 78.026 78.026 0 0038.935 9.966zm0-43.894q-14.217 0-21.854-9.012t-7.639-24.279q0-15.476 7.639-24.491t21.854-9.012q14 0 21.642 9.012T764 82.631q0 15.267-7.639 24.279t-21.642 9.012zm167.2 43.894a77.629 77.629 0 0038.723-9.966 73.85 73.85 0 0028.008-27.566q10.288-17.6 10.29-39.653t-10.29-39.653a73.305 73.305 0 00-27.9-27.46 81.593 81.593 0 00-77.764 0 73.809 73.809 0 00-28.114 27.46q-10.4 17.6-10.4 39.653t10.4 39.653a74.568 74.568 0 0028.114 27.566 78.026 78.026 0 0038.935 9.966zm0-43.894q-14.219 0-21.855-9.012t-7.638-24.279q0-15.476 7.638-24.491t21.855-9.012q14 0 21.642 9.012t7.639 24.491q0 15.267-7.639 24.279t-21.642 9.012zM987.419 8.2v37.32h39.461v112.811h47.11V45.523h39.89V8.2H987.419z" fill="red" fill-rule="evenodd"/><path id="Прямоугольник_скругл._углы_2" data-name="Прямоугольник, скругл. углы 2" d="M93.792 5h126.552a15 15 0 0115 15v209a15 15 0 01-15 15H93.792a15 15 0 01-15-15V20a15 15 0 0115-15z" fill="#42444c" fill-rule="evenodd"/><path id="Прямоугольник_1" data-name="Прямоугольник 1" d="M91.755 35h134.614v182H91.755V35z" fill="#b1dae5" fill-rule="evenodd"/><path id="Фигура_2" data-name="Фигура 2" d="M129.647 217l46.865-182h49.857v182h-96.722z" fill="#cee8ef" fill-rule="evenodd"/><path id="Прямоугольник_скругл._углы_3" data-name="Прямоугольник, скругл. углы 3" d="M147.107 229h23.911a3.5 3.5 0 110 7h-23.911a3.5 3.5 0 110-7z" fill="#2c2e35" fill-rule="evenodd"/><path id="Фигура_1" data-name="Фигура 1" d="M91.923 104.98l41.88-42 5.983-21 36.894-21 13.96 14-19.943 38-20.94 6-41.88 42z" fill="#f2f2f2" fill-rule="evenodd"/><path id="Эллипс_1" data-name="Эллипс 1" class="cls-9" d="M26.517 132.588c21.352-21.968 50.765-27.945 65.7-13.35s9.726 44.236-11.626 66.2-50.765 27.945-65.7 13.35-9.726-44.232 11.626-66.2z"/><path id="Прямоугольник_скругл._углы_1" data-name="Прямоугольник, скругл. углы 1" class="cls-9" d="M77.135 88.6l46.565 45.881a6.012 6.012 0 01.075 8.485l-3.8 3.882a5.971 5.971 0 01-8.46.075l-46.568-45.877a6.012 6.012 0 01-.075-8.485l3.8-3.881a5.971 5.971 0 018.463-.08z"/></svg>